<svg width="41" height="34" viewBox="0 0 41 34" fill="none" xmlns="http://www.w3.org/2000/svg">
<path d="M40.1541 11.6288C40.4658 11.3609 40.9295 11.6115 40.9295 12.0349V29.7043C40.9295 31.994 39.2108 33.8517 37.0923 33.8517H3.83714C1.71872 33.8517 0 31.994 0 29.7043V12.0435C0 11.6115 0.45566 11.3696 0.775422 11.6374C2.56609 13.1408 4.94032 15.0503 13.0942 21.4528C14.781 22.7834 17.6269 25.5829 20.4647 25.5656C23.3186 25.5915 26.2205 22.7316 27.8432 21.4528C35.9972 15.0503 38.3634 13.1322 40.1541 11.6288ZM20.4647 22.7921C22.3194 22.8266 24.9894 20.2691 26.3324 19.215C36.9405 10.8943 37.7479 10.1686 40.194 8.09488C40.6577 7.70607 40.9295 7.10125 40.9295 6.46186V4.8202C40.9295 2.53052 39.2108 0.672852 37.0923 0.672852H3.83714C1.71872 0.672852 0 2.53052 0 4.8202V6.46186C0 7.10125 0.271797 7.69743 0.735452 8.09488C3.18163 10.1599 3.98903 10.8943 14.5971 19.215C15.9401 20.2691 18.6101 22.8266 20.4647 22.7921Z" fill="#C9A445"/>
</svg>
