<svg width="41" height="42" viewBox="0 0 41 42" fill="none" xmlns="http://www.w3.org/2000/svg">
<path d="M41 21.2678C41 10.0058 31.8807 0.881836 20.6416 0.881836C9.39477 0.881836 0.283081 10.0058 0.283081 21.2678C0.283081 31.4404 7.72537 39.8751 17.4605 41.4027V27.1619H12.2908V21.2691H17.4605V16.7752C17.4605 11.6673 20.4952 8.84637 25.1471 8.84637C27.3751 8.84637 29.7074 9.2439 29.7074 9.2439V14.2601H27.1359C24.6115 14.2601 23.8226 15.8337 23.8226 17.4454V21.2678H29.4682L28.561 27.1606H23.8226V41.4015C33.5501 39.8738 41 31.4391 41 21.2665V21.2678Z" fill="#C9A445"/>
</svg>
