<svg width="39" height="39" viewBox="0 0 39 39" fill="none" xmlns="http://www.w3.org/2000/svg">
<path d="M38.1383 12.0393C38.1152 10.4454 37.8208 8.86419 37.2573 7.3735C36.2712 4.82794 34.2631 2.81508 31.721 1.8297C30.2512 1.27596 28.6974 0.979081 27.1246 0.945393C25.1018 0.854856 24.4605 0.82959 19.3258 0.82959C14.1911 0.82959 13.533 0.82959 11.5249 0.945393C9.95422 0.979081 8.40035 1.27596 6.93059 1.8297C4.38847 2.81508 2.37832 4.82794 1.39427 7.3735C0.841273 8.84524 0.542694 10.4012 0.513257 11.974C0.422842 14.0016 0.395508 14.6438 0.395508 19.7854C0.395508 24.9271 0.395508 25.584 0.513257 27.5969C0.544797 29.1718 0.841273 30.7256 1.39427 32.2016C2.38042 34.745 4.38847 36.7579 6.93269 37.7433C8.39615 38.316 9.95002 38.6402 11.527 38.6908C13.5519 38.7813 14.1932 38.8087 19.3279 38.8087C24.4626 38.8087 25.1207 38.8087 27.1288 38.6908C28.6995 38.6592 30.2533 38.3623 31.7252 37.8086C34.2673 36.8211 36.2754 34.8082 37.2615 32.2648C37.8145 30.7909 38.111 29.237 38.1425 27.66C38.233 25.6345 38.2603 24.9924 38.2603 19.8486C38.2561 14.707 38.2561 14.0543 38.1383 12.0393ZM19.3132 29.5087C13.943 29.5087 9.59256 25.1524 9.59256 19.7749C9.59256 14.3975 13.943 10.0412 19.3132 10.0412C24.6792 10.0412 29.0338 14.3975 29.0338 19.7749C29.0338 25.1524 24.6792 29.5087 19.3132 29.5087ZM29.4207 11.9509C28.1654 11.9509 27.154 10.936 27.154 9.68113C27.154 8.42625 28.1654 7.41139 29.4207 7.41139C30.6718 7.41139 31.6853 8.42625 31.6853 9.68113C31.6853 10.936 30.6718 11.9509 29.4207 11.9509Z" fill="#C9A445"/>
<path d="M19.3131 26.0978C22.8004 26.0978 25.6274 23.267 25.6274 19.775C25.6274 16.283 22.8004 13.4521 19.3131 13.4521C15.8258 13.4521 12.9988 16.283 12.9988 19.775C12.9988 23.267 15.8258 26.0978 19.3131 26.0978Z" fill="#C9A445"/>
</svg>
