<svg width="166" height="45" viewBox="0 0 166 45" fill="none" xmlns="http://www.w3.org/2000/svg">
<path d="M82.5053 27.6546C82.2227 27.6552 81.9489 27.5489 81.7313 27.354L74.4754 20.8186C74.2285 20.5967 74.0732 20.2779 74.0437 19.9323C74.0142 19.5867 74.113 19.2425 74.3182 18.9756C74.5235 18.7087 74.8185 18.5408 75.1382 18.5089C75.458 18.4771 75.7764 18.5838 76.0234 18.8057L82.5053 24.6614L88.9872 19.0148C89.1109 18.9062 89.2532 18.8252 89.406 18.7762C89.5588 18.7273 89.719 18.7115 89.8775 18.7297C90.0359 18.7479 90.1895 18.7998 90.3293 18.8824C90.4692 18.965 90.5925 19.0766 90.6923 19.2109C90.8031 19.3453 90.8869 19.5029 90.9387 19.674C90.9904 19.8451 91.0089 20.0258 90.9931 20.205C90.9772 20.3841 90.9272 20.5578 90.8463 20.7151C90.7654 20.8725 90.6554 21.01 90.523 21.1192L83.2671 27.4324C83.0433 27.5965 82.7751 27.6747 82.5053 27.6546Z" fill="#C9A445"/>
<path d="M67 22H1" stroke="#C9A445" stroke-linecap="square"/>
<path d="M165 22H99" stroke="#C9A445" stroke-linecap="square"/>
</svg>
