<svg width="806" height="215" viewBox="0 0 806 215" fill="none" xmlns="http://www.w3.org/2000/svg">
<path d="M213 168H291.5H370" stroke="white" stroke-width="2"/>
<path d="M436 168H514.5H593" stroke="white" stroke-width="2"/>
<path d="M395 151H410V186H395V151Z" fill="white"/>
<path d="M386 159.5L396 151V186L385.5 177L384.5 168L386 159.5Z" fill="#35C243"/>
<path d="M409 151L419 159L420.5 169L418.5 178.5L409 186V151Z" fill="#D13939"/>
<path fill-rule="evenodd" clip-rule="evenodd" d="M402.5 188C413.27 188 422 179.27 422 168.5C422 157.73 413.27 149 402.5 149C391.73 149 383 157.73 383 168.5C383 179.27 391.73 188 402.5 188ZM402.5 186C412.165 186 420 178.165 420 168.5C420 158.835 412.165 151 402.5 151C392.835 151 385 158.835 385 168.5C385 178.165 392.835 186 402.5 186Z" fill="#C9A445"/>
<path d="M38.6708 84.0874C38.4882 84.3276 38.3086 84.589 38.1318 84.8715C37.8148 85.3884 37.593 85.6555 37.4662 85.6729C37.2125 85.7075 37.0654 85.5768 37.025 85.2809C36.9846 84.985 37.366 84.3085 38.1691 83.2516C41.2856 78.9507 44.873 76.5233 48.9314 75.9695C50.5801 75.7445 52.0992 75.9894 53.4886 76.7041C54.9145 77.3707 55.7687 78.7398 56.0514 80.8113C56.5072 84.151 54.959 90.4771 51.4068 99.7896C47.8912 109.054 44.7078 116.335 41.8566 121.633C45.3124 128.655 51.0712 134.565 59.1328 139.364C67.2367 144.158 74.9031 146.062 82.1321 145.075C87.0783 144.4 90.9289 142.324 93.6842 138.848C93.9762 138.464 94.2385 138.019 94.4709 137.513C94.7514 137.044 94.9589 136.672 95.0934 136.395C95.2759 136.155 95.4518 136.023 95.6209 136C95.79 135.977 95.8918 136.092 95.9264 136.346C96.0245 137.064 95.5769 138.202 94.5836 139.759C91.3903 144.759 86.2005 147.75 79.0137 148.73C73.7717 149.446 68.4044 148.929 62.9123 147.181C59.853 146.221 56.9532 144.851 54.2128 143.072C51.4782 141.335 48.8078 138.965 46.2018 135.961C43.5958 132.958 41.3789 129.493 39.5511 125.565C37.576 128.763 35.3078 131.549 32.7465 133.922C30.2275 136.29 27.6364 137.655 24.9731 138.019C22.352 138.376 20.9261 137.71 20.6954 136.019C20.43 134.074 21.1282 131.46 22.7901 128.176C24.4943 124.886 26.5885 121.93 29.0729 119.309C31.5573 116.687 33.7084 115.253 35.5262 115.005C37.1326 114.785 38.7777 116.111 40.4613 118.982C44.3767 110.438 47.2363 102.835 49.04 96.1724C50.8437 89.51 51.5898 85.0373 51.2783 82.7545C50.8629 79.7107 49.5561 78.3388 47.3578 78.6388C43.9758 79.1003 41.0802 80.9165 38.6708 84.0874ZM38.444 123.133C37.8732 121.789 37.1649 120.702 36.3193 119.87C35.468 118.996 34.6407 118.613 33.8375 118.723C31.4701 119.046 29.1778 120.866 26.9606 124.183C24.7376 127.458 23.8021 130.384 24.154 132.963C24.2463 133.639 24.5355 134.181 25.0217 134.589C25.5079 134.996 26.1315 135.148 26.8925 135.044C29.2598 134.721 31.3159 133.536 33.0605 131.489C34.8051 129.443 36.5996 126.657 38.444 123.133Z" fill="white"/>
<path d="M96.2974 116.531C100.115 111.703 101.94 108.569 101.771 107.128C101.732 106.789 101.542 106.639 101.203 106.679C100.356 106.778 98.7204 110.062 96.2974 116.531ZM93.0207 99.5157C90.3508 99.8276 87.7562 101.334 85.2365 104.034C82.7591 106.729 80.8659 109.828 79.557 113.332C78.248 116.835 77.762 120.028 78.0987 122.909C78.4353 125.791 79.7902 127.093 82.1634 126.816C84.7908 126.509 87.5763 124.981 90.5198 122.231C91.0434 118.992 92.4647 115.346 94.7836 111.295C96.9054 107.396 98.7768 105.029 100.398 104.195C98.531 100.719 96.0719 99.1592 93.0207 99.5157ZM92.5883 98.0198C96.6566 97.5445 99.5889 99.4786 101.385 103.822C102.487 103.694 103.092 104.095 103.201 105.028C103.335 106.172 103.256 107.148 102.963 107.955C102.666 108.72 102.434 109.306 102.266 109.712C102.137 110.071 101.871 110.553 101.469 111.158C101.025 111.768 100.73 112.189 100.585 112.421C99.0756 114.574 97.4664 116.609 95.7574 118.527C95.3368 120.81 95.171 122.332 95.2602 123.095C95.4681 124.875 96.9918 125.599 99.8311 125.267C102.67 124.936 105.99 122.83 109.789 118.949C113.631 115.064 116.267 111.706 117.698 108.875C117.837 108.601 117.992 108.454 118.162 108.435C118.331 108.415 118.423 108.468 118.438 108.596C118.453 108.723 118.428 108.876 118.363 109.055C116.431 112.374 114.437 115.163 112.382 117.422C110.368 119.676 107.82 121.95 104.737 124.243C101.697 126.531 98.8207 127.834 96.1085 128.151C92.7182 128.547 90.8646 127.389 90.5478 124.677C90.5329 124.55 90.5319 124.356 90.5446 124.097C90.5573 123.838 90.5561 123.645 90.5412 123.518C86.099 127.044 82.3312 128.987 79.2376 129.349C75.6778 129.765 73.6454 127.811 73.1404 123.489C72.774 120.353 73.4847 116.876 75.2725 113.059C77.0977 109.194 79.6042 105.83 82.7921 102.966C86.0174 100.055 89.2828 98.406 92.5883 98.0198Z" fill="white"/>
<path d="M206.001 64.873C206.039 65.298 205.651 65.9963 204.837 66.968C204.067 67.9359 203.573 68.6436 203.355 69.0913C203.138 69.5389 202.902 69.774 202.647 69.7966C202.434 69.8155 202.313 69.6549 202.283 69.3149C202.155 67.8699 201.053 66.5541 198.977 65.3676C196.901 64.181 194.759 63.6858 192.549 63.8819C188.299 64.2589 184.321 65.7684 180.614 68.4102C174.969 72.8518 170.348 78.4661 166.752 85.2531C163.195 91.9938 161.732 98.9129 162.361 106.01C162.708 109.92 164.214 113.128 166.877 115.633C169.541 118.138 172.701 119.228 176.356 118.904C182.476 118.361 187.126 116.706 190.308 113.94C193.528 111.127 195.582 107.732 196.472 103.755C196.679 102.709 196.888 102.176 197.101 102.157C197.526 102.12 198.006 102.462 198.541 103.186C199.073 103.867 199.361 104.462 199.407 104.972C199.452 105.482 199.182 106.299 198.596 107.422C198.01 108.545 197.032 109.831 195.661 111.28C194.291 112.73 192.66 114.138 190.768 115.505C188.914 116.826 186.536 118.022 183.633 119.094C180.73 120.165 177.642 120.846 174.369 121.136C169.567 121.562 165.434 120.366 161.971 117.546C158.547 114.68 156.626 110.888 156.208 106.171C155.619 99.5408 157.595 92.5977 162.134 85.3416C166.712 78.0391 172.533 71.9542 179.597 67.0869C184.921 63.3592 190.515 61.2352 196.38 60.7149C199.737 60.4171 202.438 61.1627 204.481 62.9518C205.457 63.8076 205.963 64.448 206.001 64.873Z" fill="white"/>
<path d="M227.575 106.113C231.598 101.455 233.556 98.4022 233.45 96.9554C233.425 96.615 233.243 96.4573 232.902 96.4822C232.051 96.5444 230.275 99.7546 227.575 106.113ZM225.037 88.972C222.356 89.1681 219.699 90.5604 217.065 93.1489C214.473 95.7342 212.448 98.7487 210.988 102.192C209.529 105.636 208.905 108.805 209.117 111.698C209.329 114.592 210.626 115.951 213.009 115.777C215.647 115.584 218.496 114.178 221.556 111.558C222.219 108.344 223.797 104.763 226.289 100.816C228.577 97.0125 230.549 94.7292 232.205 93.9663C230.49 90.4126 228.101 88.7479 225.037 88.972ZM224.67 87.4588C228.755 87.1599 231.601 89.2191 233.207 93.6363C234.314 93.5554 234.901 93.983 234.97 94.9192C235.054 96.0681 234.932 97.0395 234.605 97.8335C234.275 98.5849 234.018 99.1599 233.833 99.5584C233.688 99.9113 233.401 100.381 232.974 100.969C232.504 101.559 232.191 101.967 232.037 102.193C230.435 104.278 228.739 106.241 226.949 108.083C226.43 110.346 226.198 111.86 226.254 112.626C226.385 114.413 227.876 115.203 230.727 114.994C233.578 114.786 236.986 112.825 240.949 109.113C244.955 105.397 247.734 102.156 249.286 99.3905C249.438 99.1227 249.598 98.9826 249.769 98.9701C249.939 98.9577 250.029 99.0153 250.038 99.143C250.047 99.2706 250.016 99.4227 249.943 99.5991C247.869 102.831 245.757 105.531 243.605 107.699C241.496 109.864 238.852 112.025 235.673 114.183C232.537 116.338 229.607 117.515 226.883 117.714C223.479 117.963 221.677 116.726 221.478 114.002C221.469 113.875 221.476 113.682 221.5 113.423C221.524 113.165 221.531 112.972 221.522 112.844C216.931 116.175 213.083 117.954 209.976 118.181C206.402 118.442 204.456 116.403 204.138 112.062C203.908 108.914 204.768 105.471 206.72 101.735C208.71 97.9526 211.36 94.6999 214.669 91.9765C218.017 89.2075 221.351 87.7016 224.67 87.4588Z" fill="white"/>
<path d="M250.861 108.288L250.828 109.957C250.923 111.618 251.453 113.041 252.418 114.225C253.423 115.365 254.905 115.878 256.865 115.766C258.867 115.652 261.272 114.361 264.08 111.893C266.928 109.38 269.337 106.294 271.308 102.634C273.319 98.9297 274.237 95.544 274.062 92.4769C273.834 88.4728 272.612 86.5339 270.397 86.6603C269.119 86.7332 267.7 87.327 266.139 88.4417C264.579 89.5564 263.118 90.9218 261.757 92.5379C259.352 95.3248 257.602 97.6042 256.506 99.3762C256.351 99.6415 256.188 99.779 256.017 99.7887C255.847 99.7984 255.758 99.7394 255.751 99.6116C255.743 99.4838 255.777 99.3323 255.853 99.157C261.737 89.9322 267.107 85.1813 271.963 84.9042C273.923 84.7924 275.543 85.4692 276.823 86.9347C278.103 88.4001 278.808 90.2617 278.936 92.5194C279.065 94.777 278.379 97.359 276.878 100.265C275.377 103.171 273.476 105.801 271.174 108.155C268.873 110.509 266.316 112.513 263.505 114.17C260.736 115.823 258.35 116.707 256.348 116.822C254.388 116.933 252.367 116.707 250.283 116.142C248.242 115.575 247.169 114.738 247.063 113.633C247.032 113.08 247.527 112.026 248.55 110.472C249.612 108.872 250.335 108.062 250.719 108.04C250.804 108.035 250.851 108.118 250.861 108.288Z" fill="white"/>
<path d="M311.755 101.56C315.925 97.0331 317.981 94.0451 317.921 92.5957C317.907 92.2546 317.73 92.0911 317.389 92.105C316.536 92.14 314.658 95.2915 311.755 101.56ZM309.769 84.3466C307.083 84.4566 304.382 85.763 301.667 88.2656C298.993 90.7665 296.872 93.7145 295.303 97.1096C293.734 100.505 293.009 103.652 293.128 106.551C293.247 109.449 294.5 110.85 296.887 110.752C299.53 110.644 302.423 109.33 305.565 106.81C306.331 103.618 308.023 100.09 310.64 96.2249C313.049 92.4964 315.093 90.2775 316.773 89.5682C315.173 85.9613 312.838 84.2208 309.769 84.3466ZM309.45 82.8223C313.543 82.6546 316.321 84.804 317.785 89.2704C318.894 89.225 319.467 89.6712 319.505 90.6091C319.553 91.7602 319.4 92.7272 319.048 93.5103C318.694 94.2507 318.418 94.8172 318.221 95.2096C318.064 95.5576 317.763 96.0184 317.317 96.5918C316.828 97.1669 316.502 97.5646 316.341 97.7847C314.673 99.8174 312.915 101.726 311.067 103.509C310.475 105.754 310.195 107.26 310.227 108.028C310.3 109.818 311.765 110.655 314.621 110.538C317.478 110.421 320.946 108.571 325.027 104.987C329.15 101.402 332.032 98.252 333.671 95.5372C333.831 95.2744 333.996 95.1396 334.167 95.1326C334.337 95.1256 334.425 95.186 334.431 95.3139C334.436 95.4418 334.399 95.5928 334.321 95.7668C332.145 98.9306 329.947 101.561 327.727 103.659C325.549 105.756 322.837 107.831 319.591 109.886C316.387 111.939 313.421 113.021 310.692 113.133C307.282 113.273 305.521 111.978 305.409 109.25C305.404 109.122 305.417 108.929 305.449 108.672C305.481 108.414 305.495 108.222 305.49 108.094C300.795 111.275 296.891 112.93 293.779 113.057C290.198 113.204 288.318 111.103 288.14 106.755C288.011 103.6 288.981 100.187 291.051 96.5152C293.162 92.799 295.915 89.6329 299.309 87.0171C302.745 84.3568 306.125 82.9586 309.45 82.8223Z" fill="white"/>
<path d="M380.908 98.5734C378.614 95.4398 376.972 93.4942 375.983 92.7365C374.993 91.9787 374.051 91.6046 373.155 91.6139C370.638 91.6402 368.158 93.2448 365.717 96.4278C363.317 99.5676 362.131 102.396 362.157 104.913C362.185 107.644 363.906 108.991 367.319 108.956C369.111 108.937 371.236 108.083 373.693 106.393C376.192 104.66 378.597 102.054 380.908 98.5734ZM385.863 95.0655C386.298 95.829 386.908 97.0387 387.693 98.6946C388.479 100.351 389.176 101.73 389.785 102.833C390.393 103.893 391.173 105.037 392.125 106.265C394.07 108.719 396.792 109.928 400.291 109.892C403.832 109.855 407.192 108.817 410.371 106.778C413.55 104.74 416.168 102.131 418.226 98.9521C420.326 95.73 421.953 92.1928 423.107 88.3406C424.304 84.4879 424.884 80.7056 424.845 76.9938C424.719 64.8772 418.969 57.7261 407.596 55.5406C404.129 62.6172 400.26 70.082 395.989 77.9349C391.761 85.7448 388.386 91.455 385.863 95.0655ZM374.99 71.2416C374.996 71.7536 375.13 72.3496 375.393 73.0295C375.395 73.2002 375.246 73.2871 374.948 73.2902C374.649 73.2933 374.241 73.0416 373.724 72.5349C373.206 72.0283 372.776 71.6488 372.432 71.3963C371.744 70.8915 371.397 70.3831 371.392 69.8711C371.361 66.9273 372.783 64.1816 375.658 61.6341C378.576 59.0862 382.118 57.1292 386.285 55.763C390.452 54.3541 394.605 53.6281 398.743 53.5849C400.621 53.5653 401.986 53.5937 402.84 53.6701C403.257 52.6844 403.46 51.7436 403.451 50.8476C403.432 49.0557 402.907 47.7811 401.875 47.0238C400.886 46.2661 399.495 45.8966 397.703 45.9153C395.954 45.9336 394.4 46.2271 393.04 46.796C391.723 47.3644 390.641 47.9304 389.794 48.494C388.989 49.0571 388.544 49.339 388.459 49.3399C388.203 49.3426 388.073 49.216 388.071 48.96C388.069 48.7893 388.534 48.3578 389.465 47.6653C390.397 46.9729 391.776 46.2545 393.603 45.5101C395.43 44.7656 397.154 44.385 398.775 44.368C400.439 44.3507 401.913 44.506 403.196 44.8339C404.479 45.1192 405.681 45.7894 406.801 46.8444C407.964 47.8564 408.554 49.2156 408.572 50.9222C408.582 51.8608 408.38 52.9723 407.967 54.2567C422.754 56.5345 430.225 65.1184 430.381 80.0083C430.423 84.0187 429.653 87.9523 428.072 91.809C426.491 95.6657 424.35 99.0375 421.649 101.925C418.948 104.769 415.708 107.085 411.929 108.874C408.192 110.62 404.297 111.514 400.244 111.556C397.258 111.588 394.436 111.02 391.778 109.853C390.835 109.436 389.76 108.679 388.554 107.582C387.39 106.442 386.484 105.513 385.837 104.794C385.232 104.075 384.497 103.187 383.633 102.129C382.811 101.028 382.292 100.351 382.076 100.097C379.841 102.681 377.836 104.75 376.06 106.304C374.284 107.816 372.313 109.096 370.148 110.142C368.025 111.146 366.174 111.656 364.596 111.672C363.017 111.689 361.626 111.319 360.424 110.564C359.221 109.808 358.611 108.62 358.594 106.999C358.578 105.377 359.219 103.451 360.518 101.218C361.817 98.9432 363.396 96.8573 365.253 94.9605C367.11 93.021 369.163 91.3782 371.41 90.032C373.7 88.6854 375.72 88.0029 377.469 87.9847C379.688 87.9615 381.966 89.5592 384.303 92.7777C388.072 85.954 391.606 79.0261 394.903 71.9939C398.2 64.9192 400.679 59.197 402.341 54.8274C401.486 54.751 400.163 54.7221 398.371 54.7408C394.873 54.7773 391.297 55.604 387.645 57.2209C383.992 58.7951 380.962 60.8748 378.557 63.46C376.152 66.0452 374.963 68.6391 374.99 71.2416Z" fill="white"/>
<path d="M431.184 102.219L428.612 104.253C428.527 104.253 428.485 104.167 428.486 103.997C428.487 103.826 428.637 103.592 428.938 103.295C429.238 102.998 430.074 102.341 431.444 101.325C432.442 98.2581 433.93 95.3647 435.907 92.6447C437.885 89.9247 439.902 87.7383 441.959 86.0854C444.016 84.3898 445.965 83.0777 447.804 82.1489C449.644 81.1775 451.098 80.6947 452.164 80.7005C454.383 80.7125 455.488 81.5718 455.478 83.2785C455.475 83.9185 455.237 84.5785 454.764 85.2586C454.291 85.8961 453.412 86.702 452.127 87.6764C450.884 88.651 449.684 89.5405 448.528 90.345C447.415 91.107 445.616 92.3132 443.132 93.9638C440.691 95.6147 438.593 97.054 436.837 98.2818C436.057 100.454 435.662 102.478 435.652 104.355C435.642 106.19 436.125 107.558 437.102 108.459C438.121 109.361 439.804 109.818 442.151 109.831C444.54 109.844 447.275 109.026 450.356 107.379C453.48 105.732 456.434 103.721 459.221 101.347C462.007 98.93 464.067 96.7225 465.401 94.7243C465.573 94.4692 465.744 94.3422 465.915 94.3431C466.085 94.344 466.17 94.4085 466.17 94.5365C466.169 94.6645 466.125 94.8136 466.039 94.9838C461.27 101.102 455.527 105.85 448.81 109.227C445.559 110.745 442.398 111.496 439.326 111.479C433.523 111.448 430.633 109.427 430.654 105.416C430.657 104.819 430.834 103.753 431.184 102.219ZM437.355 97.1326C442.409 93.5332 446.008 90.758 448.152 88.8069C450.296 86.8131 451.372 85.2616 451.378 84.1523C451.384 83.043 450.917 82.4858 449.979 82.4807C447.888 82.4694 445.64 83.9719 443.234 86.9883C440.829 89.962 438.869 93.3434 437.355 97.1326Z" fill="white"/>
<path d="M488.822 69.644C492.373 66.8067 495.471 64.2385 498.115 61.9395C500.804 59.5986 503.649 56.8552 506.65 53.7092C509.695 50.5639 512.202 47.601 514.173 44.8203C516.145 41.997 517.8 38.9332 519.141 35.629C520.482 32.2821 521.18 29.0516 521.237 25.9375C521.25 25.2123 521.112 24.6123 520.822 24.1376C520.532 23.6203 520.132 23.357 519.62 23.3477C517.7 23.3128 514.792 26.0124 510.895 31.4466C506.999 36.8381 502.866 43.5694 498.494 51.6407L488.822 69.644ZM481.399 76.5504C477.034 79.5863 474.051 81.7085 472.45 82.9169C470.027 84.7506 468.73 85.6658 468.56 85.6627C468.389 85.6596 468.305 85.5728 468.308 85.4021C468.311 85.2315 468.443 85.0632 468.702 84.8972C473.974 81.2377 478.516 77.9062 482.325 74.9029L493.843 53.9886C494.329 53.1013 495.301 51.2627 496.76 48.4727C498.262 45.6408 499.322 43.6544 499.94 42.5135C500.559 41.3725 501.592 39.663 503.042 37.3849C504.492 35.1069 505.783 33.3167 506.916 32.0144C509.969 28.3999 513.093 25.5762 516.288 23.5432C519.271 21.3784 521.937 20.3172 524.283 20.3599C525.051 20.3738 525.599 20.7038 525.929 21.3499C526.259 21.996 526.418 22.6177 526.407 23.2149C526.279 30.2964 522.965 37.7255 516.465 45.502C514.284 48.1082 512.215 50.4177 510.258 52.4305C508.344 54.444 505.913 56.7256 502.965 59.2752C499.322 62.4522 494.254 66.5848 487.761 71.6731L478.749 88.5362C477.158 91.5798 475.92 93.9471 475.036 95.638C474.195 97.287 473.328 99.2129 472.434 101.416C471.583 103.619 471.148 105.276 471.128 106.385C471.108 107.494 471.432 108.46 472.099 109.283C472.768 110.063 473.657 110.463 474.766 110.484C477.454 110.532 480.456 109.712 483.772 108.023C487.089 106.333 490.155 104.319 492.971 101.981C495.788 99.5995 497.876 97.4184 499.235 95.4374C499.411 95.1845 499.584 95.0597 499.754 95.0628C499.925 95.0659 500.009 95.1314 500.007 95.2594C500.004 95.3874 499.959 95.5359 499.871 95.705C497.511 98.7346 495.161 101.231 492.821 103.194C490.524 105.158 488.082 106.863 485.495 108.31C482.909 109.757 480.415 110.778 478.014 111.375C475.656 111.972 473.603 112.255 471.854 112.223C470.105 112.191 468.727 111.697 467.72 110.74C466.713 109.825 466.221 108.685 466.246 107.32C466.271 105.955 466.508 104.637 466.958 103.365C467.451 102.051 467.919 100.95 468.362 100.062C468.848 99.1742 469.796 97.4631 471.208 94.9283L481.399 76.5504Z" fill="white"/>
<path d="M522.718 70.6536C526.305 67.8618 529.435 65.3333 532.109 63.0682C534.827 60.7618 537.707 58.0548 540.749 54.9473C543.833 51.8412 546.378 48.9104 548.384 46.1551C550.391 43.3572 552.086 40.3148 553.468 37.0279C554.852 33.6984 555.592 30.4771 555.688 27.3639C555.711 26.6389 555.58 26.0372 555.296 25.5589C555.013 25.0379 554.616 24.7695 554.104 24.7537C552.185 24.6943 549.243 27.3567 545.277 32.7407C541.313 38.0821 537.094 44.7602 532.62 52.7751L522.718 70.6536ZM515.208 77.4647C510.805 80.4447 507.795 82.5287 506.179 83.7166C503.733 85.5192 502.424 86.4179 502.254 86.4126C502.083 86.4073 502 86.3194 502.006 86.1488C502.011 85.9782 502.144 85.8116 502.405 85.6489C507.724 82.0569 512.308 78.7837 516.155 75.8292L527.939 55.0635C528.436 54.1824 529.431 52.3563 530.926 49.5852C532.464 46.7727 533.549 44.8 534.182 43.667C534.815 42.534 535.87 40.8378 537.349 38.5784C538.827 36.3191 540.141 34.5455 541.291 33.2577C544.39 29.6825 547.549 26.8988 550.77 24.9067C553.781 22.7801 556.459 21.753 558.805 21.8256C559.572 21.8493 560.117 22.1863 560.438 22.8365C560.76 23.4868 560.911 24.1104 560.893 24.7075C560.674 31.7868 557.265 39.173 550.667 46.866C548.453 49.4442 546.355 51.7271 544.372 53.7147C542.433 55.7037 539.973 57.9541 536.992 60.4659C533.31 63.5962 528.189 67.6639 521.632 72.669L512.406 89.4158C510.775 92.4389 509.508 94.7901 508.602 96.4696C507.74 98.1078 506.849 100.022 505.927 102.214C505.048 104.406 504.592 106.057 504.557 107.166C504.523 108.275 504.835 109.245 505.492 110.076C506.15 110.865 507.034 111.276 508.143 111.311C510.83 111.394 513.842 110.612 517.18 108.965C520.518 107.318 523.609 105.343 526.455 103.041C529.302 100.695 531.418 98.5411 532.802 96.5776C532.981 96.327 533.155 96.2044 533.326 96.2096C533.496 96.2149 533.58 96.2815 533.576 96.4095C533.572 96.5374 533.524 96.6853 533.434 96.8533C531.036 99.8526 528.655 102.319 526.29 104.252C523.968 106.187 521.504 107.86 518.899 109.274C516.294 110.687 513.788 111.677 511.38 112.243C509.014 112.81 506.957 113.067 505.209 113.013C503.46 112.959 502.089 112.447 501.094 111.477C500.099 110.55 499.622 109.404 499.664 108.039C499.706 106.674 499.96 105.359 500.426 104.093C500.936 102.785 501.418 101.69 501.873 100.808C502.369 99.9266 503.34 98.2278 504.783 95.7112L515.208 77.4647Z" fill="white"/>
<path d="M555.224 102.809C559.771 98.6615 562.078 95.8633 562.145 94.4141C562.161 94.0732 561.998 93.8948 561.657 93.8792C560.805 93.8399 558.66 96.8165 555.224 102.809ZM554.739 85.4883C552.054 85.3648 549.25 86.4317 546.327 88.689C543.447 90.9484 541.078 93.7011 539.22 96.9471C537.362 100.193 536.367 103.265 536.233 106.164C536.1 109.062 537.227 110.566 539.614 110.676C542.256 110.797 545.252 109.739 548.601 107.502C549.641 104.389 551.633 101.021 554.576 97.3974C557.3 93.8922 559.529 91.8592 561.263 91.2983C559.983 87.5662 557.808 85.6295 554.739 85.4883ZM554.554 83.9422C558.646 84.1304 561.227 86.5129 562.298 91.0897C563.406 91.1407 563.939 91.635 563.895 92.5727C563.842 93.7234 563.607 94.6736 563.188 95.4231C562.771 96.1301 562.447 96.6704 562.216 97.0442C562.03 97.3773 561.69 97.8101 561.195 98.3427C560.658 98.8732 560.3 99.2411 560.119 99.4464C558.282 101.327 556.365 103.075 554.368 104.692C553.584 106.877 553.175 108.353 553.139 109.12C553.057 110.91 554.444 111.871 557.299 112.002C560.155 112.134 563.771 110.591 568.147 107.376C572.567 104.162 575.711 101.274 577.58 98.7122C577.762 98.4643 577.938 98.3443 578.109 98.3521C578.279 98.3599 578.362 98.4278 578.356 98.5557C578.35 98.6835 578.3 98.8307 578.207 98.9973C575.764 101.96 573.346 104.39 570.952 106.288C568.601 108.187 565.719 110.019 562.307 111.784C558.937 113.551 555.888 114.372 553.16 114.246C549.75 114.089 548.108 112.647 548.234 109.919C548.239 109.791 548.27 109.601 548.324 109.347C548.378 109.093 548.408 108.902 548.414 108.774C543.461 111.536 539.428 112.846 536.317 112.702C532.737 112.538 531.047 110.282 531.247 105.934C531.392 102.78 532.655 99.464 535.036 95.9857C537.462 92.4669 540.479 89.5518 544.088 87.2406C547.741 84.8887 551.23 83.7892 554.554 83.9422Z" fill="white"/>
<path d="M614.9 94.9606C621.238 93.8324 627.034 92.5118 632.288 90.9989C637.585 89.4894 642.256 87.2457 646.299 84.2681C650.388 81.2512 652.554 78.1902 652.798 75.0851C652.945 73.2136 652.457 71.5275 651.334 70.0268C650.211 68.5262 648.543 67.689 646.332 67.5151C637.697 66.8364 627.22 75.9849 614.9 94.9606ZM617.153 77.7401L615.489 77.6736C615.063 77.6401 614.862 77.4745 614.886 77.1768C614.913 76.8365 616.201 76.5098 618.751 76.1966C621.346 75.8442 622.92 75.6898 623.473 75.7332C624.069 75.7801 624.352 75.9949 624.321 76.3777C624.291 76.7605 622.554 79.8124 619.108 85.5333C621.004 82.6437 623.1 79.9409 625.395 77.425C629.171 73.4848 633.321 70.2373 637.844 67.6826C642.414 65.0887 646.527 63.9354 650.185 64.223C652.78 64.4269 654.83 65.2942 656.336 66.825C657.888 68.3165 658.574 70.2107 658.393 72.5076C658.216 74.762 657.499 76.8028 656.243 78.6299C654.987 80.4571 653.492 82.0515 651.759 83.4132C650.025 84.7749 647.997 86.0707 645.675 87.3005C641.614 89.4208 637.457 91.127 633.204 92.419C628.997 93.6719 622.672 95.1863 614.229 96.9622C608.126 107.096 604.26 113.811 602.631 117.107C602.428 117.519 602.048 117.725 601.491 117.724C600.932 117.765 600.14 117.767 599.116 117.73C598.134 117.695 597.316 117.759 596.661 117.922C596.045 118.13 595.58 118.329 595.266 118.519C594.952 118.708 594.645 118.791 594.348 118.767C594.05 118.744 593.909 118.626 593.926 118.413C593.94 118.243 594.092 117.934 594.384 117.486C594.673 117.081 595.057 116.555 595.535 115.908C600.478 109.106 603.826 104.362 605.578 101.675C607.33 98.9877 608.767 96.7682 609.889 95.0161C611.014 93.2214 611.969 91.6915 612.753 90.4264C613.537 89.1613 614.448 87.6493 615.485 85.8905C617.657 82.2094 618.784 79.8585 618.864 78.8376C618.914 78.1996 618.344 77.8337 617.153 77.7401Z" fill="white"/>
<path d="M660.128 96.6574C659.721 96.8757 659.454 96.9787 659.327 96.9665C659.242 96.9584 659.207 96.8694 659.224 96.6995C659.24 96.5296 659.384 96.3719 659.655 96.2264C662.552 94.6178 664.977 93.9071 666.931 94.0941C669.819 94.3706 671.137 95.8255 670.885 98.4588C670.796 99.3932 669.907 101.065 668.219 103.475C666.535 105.843 664.839 108.338 663.13 110.961C661.422 113.583 660.493 115.68 660.342 117.252C660.131 119.46 661.512 120.707 664.485 120.991C665.929 121.13 667.884 120.631 670.35 119.495C672.859 118.364 675.076 117.14 677.002 115.825C678.928 114.509 680.642 113.173 682.143 111.816C683.645 110.46 684.569 109.541 684.915 109.06C685.303 108.583 685.583 108.352 685.752 108.369C685.922 108.385 686.001 108.457 685.989 108.584C685.977 108.712 685.92 108.856 685.819 109.018C683.469 111.622 680.936 113.908 678.219 115.877C675.252 118.207 672.08 120.004 668.702 121.266C665.327 122.486 662.685 123.005 660.773 122.822C658.862 122.639 657.416 122.072 656.436 121.121C655.455 120.17 655.046 118.845 655.209 117.146C655.372 115.447 656.377 113.229 658.225 110.491C660.073 107.753 661.9 105.228 663.708 102.915C665.519 100.56 666.463 98.9784 666.541 98.1715C666.622 97.322 666.494 96.6454 666.156 96.1416C665.861 95.6419 665.438 95.3656 664.886 95.3127C663.611 95.1907 662.026 95.639 660.128 96.6574ZM676.033 80.9497C676.123 80.0153 676.641 79.0791 677.588 78.141C678.45 77.1949 679.263 76.7584 680.028 76.8316C680.792 76.9048 681.343 77.1933 681.681 77.6971C682.022 78.1584 682.155 78.7925 682.077 79.5995C682 80.4065 681.53 81.283 680.668 82.2292C679.81 83.1329 678.872 83.5359 677.852 83.4383C676.493 83.3082 675.887 82.4787 676.033 80.9497Z" fill="white"/>
<path d="M695.605 128.061C694.908 128.157 693.488 128.389 691.345 128.758C686.932 129.481 682.88 130.437 679.189 131.624C675.494 132.855 671.755 134.488 667.972 136.524C664.184 138.602 660.694 140.906 657.502 143.436C654.305 146.007 651.657 148.853 649.559 151.973C647.457 155.136 646.24 158.244 645.909 161.298C645.739 162.868 646.06 164.254 646.874 165.458C647.683 166.705 648.766 167.402 650.124 167.549C652.838 167.843 655.641 167.525 658.532 166.593C661.375 165.7 664.046 164.423 666.543 162.763C669.041 161.102 671.582 159.039 674.167 156.572C676.747 154.148 679.049 151.716 681.074 149.274C683.046 146.913 685.047 144.298 687.075 141.427C690.262 136.966 693.105 132.511 695.605 128.061ZM702.241 125.047C706.2 123.759 709.969 121.85 713.548 119.32C717.131 116.747 719.689 114.536 721.22 112.684C721.417 112.448 721.6 112.339 721.77 112.358C721.94 112.376 722.018 112.449 722.004 112.576C721.99 112.704 721.932 112.847 721.828 113.008C718.882 116.036 716.363 118.295 714.27 119.785C710.498 122.509 706.268 124.711 701.58 126.391C698.028 133.817 692.773 141.316 685.815 148.887C682.165 152.869 678.367 156.427 674.422 159.561C670.477 162.696 666.262 165.157 661.777 166.945C657.249 168.729 652.97 169.402 648.94 168.965C646.692 168.722 644.784 167.914 643.216 166.542C641.601 165.208 640.931 163.269 641.207 160.724C641.483 158.179 642.569 155.486 644.465 152.644C646.319 149.798 648.569 147.252 651.216 145.007C653.905 142.767 656.858 140.662 660.076 138.693C666.05 135.049 671.789 132.389 677.293 130.711C680.795 129.674 687.214 128.267 696.548 126.49C697.495 124.876 698.059 123.241 698.238 121.587C698.418 119.933 698.117 118.742 697.338 118.013C696.601 117.29 695.193 116.815 693.115 116.59C690.082 118.836 687.781 119.874 686.211 119.704C685.787 119.658 685.589 119.508 685.616 119.253C685.708 118.405 686.493 117.696 687.971 117.127C689.454 116.515 690.805 116.125 692.025 115.957C692.584 115.545 693.932 114.597 696.067 113.112C698.245 111.631 700.008 110.406 701.358 109.437C702.708 108.467 704.123 107.29 705.603 105.906C707.088 104.479 708.082 103.235 708.583 102.173C702.839 103.696 698.27 104.274 694.876 103.906C692.883 103.69 691.291 103.131 690.101 102.229C688.959 101.29 688.426 100.46 688.504 99.7386C688.527 99.5265 689.148 99.1432 690.367 98.5887C691.591 97.9918 692.384 97.6056 692.746 97.4303C693.155 97.2172 693.428 97.0751 693.565 97.0041C693.748 96.8952 693.882 96.8454 693.967 96.8546L694.081 96.9957C694.071 97.0805 693.926 97.2364 693.644 97.4633C693.362 97.6902 693.202 97.9733 693.165 98.3127C693.133 98.6096 693.289 98.9484 693.634 99.3292C693.979 99.7099 694.767 100.16 695.999 100.68C697.234 101.157 698.998 101.52 701.288 101.768C704.003 102.063 707.61 101.445 712.111 99.9161C713.179 99.5599 713.799 99.391 713.968 99.4094C714.18 99.4324 714.277 99.5287 714.259 99.6984C714.185 100.377 712.863 101.886 710.292 104.225C707.721 106.564 702.277 110.459 693.961 115.909C698.5 116.401 701.302 117.477 702.366 119.138C702.877 119.966 703.075 120.91 702.96 121.97C702.845 123.031 702.605 124.056 702.241 125.047Z" fill="white"/>
<path d="M731.748 132.263C731.05 132.349 729.627 132.561 727.479 132.9C723.056 133.562 718.992 134.461 715.285 135.597C711.572 136.776 707.811 138.357 704 140.34C700.184 142.366 696.662 144.621 693.435 147.106C690.202 149.633 687.516 152.441 685.374 155.532C683.228 158.665 681.968 161.756 681.595 164.805C681.403 166.372 681.705 167.763 682.502 168.978C683.294 170.236 684.367 170.948 685.722 171.114C688.433 171.446 691.239 171.166 694.143 170.276C696.998 169.422 699.686 168.182 702.207 166.557C704.727 164.931 707.297 162.903 709.916 160.473C712.53 158.085 714.865 155.685 716.923 153.272C718.929 150.938 720.965 148.351 723.033 145.509C726.282 141.093 729.187 136.677 731.748 132.263ZM738.425 129.341C742.402 128.109 746.197 126.252 749.811 123.772C753.43 121.249 756.018 119.073 757.574 117.244C757.775 117.01 757.96 116.904 758.129 116.925C758.299 116.946 758.376 117.02 758.36 117.147C758.345 117.274 758.284 117.417 758.179 117.576C755.19 120.562 752.64 122.786 750.527 124.247C746.717 126.918 742.457 129.061 737.746 130.676C734.091 138.052 728.732 145.477 721.67 152.951C717.964 156.881 714.117 160.386 710.129 163.465C706.141 166.544 701.892 168.947 697.382 170.673C692.83 172.393 688.542 173.007 684.519 172.514C682.274 172.239 680.378 171.405 678.829 170.011C677.233 168.655 676.59 166.707 676.902 164.166C677.213 161.625 678.336 158.947 680.272 156.132C682.165 153.312 684.45 150.798 687.128 148.59C689.848 146.387 692.83 144.323 696.075 142.4C702.099 138.839 707.875 136.258 713.401 134.657C716.918 133.67 723.355 132.352 732.713 130.704C733.683 129.104 734.269 127.478 734.471 125.826C734.674 124.174 734.39 122.979 733.621 122.24C732.894 121.506 731.493 121.012 729.418 120.758C726.354 122.962 724.039 123.967 722.472 123.775C722.048 123.724 721.852 123.571 721.883 123.317C721.987 122.47 722.782 121.772 724.267 121.223C725.758 120.632 727.115 120.261 728.337 120.11C728.902 119.706 730.263 118.776 732.418 117.321C734.616 115.871 736.397 114.671 737.76 113.72C739.123 112.769 740.554 111.612 742.054 110.248C743.559 108.842 744.569 107.612 745.085 106.558C739.32 108.001 734.744 108.515 731.356 108.1C729.365 107.856 727.782 107.275 726.604 106.357C725.475 105.402 724.954 104.564 725.042 103.844C725.068 103.632 725.695 103.258 726.921 102.72C728.153 102.14 728.951 101.765 729.316 101.595C729.728 101.388 730.003 101.249 730.14 101.18C730.325 101.074 730.46 101.026 730.545 101.036L730.656 101.179C730.646 101.264 730.498 101.418 730.213 101.641C729.928 101.864 729.764 102.144 729.723 102.483C729.686 102.78 729.838 103.121 730.178 103.506C730.517 103.892 731.299 104.353 732.523 104.89C733.752 105.384 735.51 105.771 737.797 106.052C740.507 106.384 744.123 105.816 748.644 104.35C749.718 104.009 750.339 103.848 750.508 103.869C750.72 103.895 750.816 103.993 750.795 104.162C750.712 104.84 749.369 106.33 746.765 108.633C744.162 110.937 738.665 114.755 730.274 120.089C734.805 120.644 737.592 121.759 738.633 123.434C739.133 124.269 739.317 125.216 739.188 126.275C739.058 127.334 738.804 128.356 738.425 129.341Z" fill="white"/>
<path d="M779.794 125.571C784.702 121.857 787.255 119.281 787.454 117.844C787.501 117.506 787.355 117.314 787.017 117.267C786.172 117.15 783.764 119.918 779.794 125.571ZM780.896 108.279C778.233 107.91 775.343 108.716 772.226 110.697C769.151 112.683 766.54 115.208 764.394 118.27C762.247 121.333 760.974 124.301 760.576 127.175C760.179 130.049 761.163 131.65 763.53 131.977C766.15 132.34 769.23 131.56 772.77 129.638C774.09 126.634 776.382 123.462 779.644 120.123C782.677 116.881 785.082 115.061 786.861 114.661C785.927 110.827 783.939 108.7 780.896 108.279ZM780.853 106.722C784.91 107.284 787.262 109.892 787.91 114.548C789.009 114.7 789.494 115.241 789.365 116.171C789.207 117.312 788.886 118.236 788.4 118.944C787.92 119.61 787.548 120.119 787.284 120.47C787.068 120.785 786.69 121.184 786.149 121.669C785.566 122.149 785.175 122.482 784.977 122.67C782.975 124.374 780.906 125.94 778.77 127.367C777.789 129.472 777.247 130.904 777.141 131.665C776.896 133.44 778.189 134.523 781.02 134.915C783.852 135.307 787.594 134.102 792.246 131.301C796.94 128.504 800.335 125.916 802.431 123.536C802.635 123.306 802.822 123.202 802.991 123.226C803.16 123.249 803.235 123.324 803.218 123.451C803.2 123.578 803.138 123.72 803.03 123.877C800.326 126.604 797.696 128.803 795.139 130.473C792.624 132.15 789.586 133.711 786.026 135.156C782.509 136.607 779.398 137.146 776.693 136.771C773.312 136.303 771.808 134.717 772.183 132.012C772.2 131.885 772.248 131.698 772.325 131.45C772.403 131.203 772.45 131.015 772.468 130.889C767.282 133.186 763.147 134.121 760.062 133.694C756.512 133.202 755.035 130.801 755.632 126.49C756.065 123.363 757.626 120.176 760.315 116.93C763.052 113.648 766.323 111.021 770.128 109.049C773.981 107.041 777.556 106.266 780.853 106.722Z" fill="white"/>
</svg>
