<svg width="279" height="61" viewBox="0 0 279 61" fill="none" xmlns="http://www.w3.org/2000/svg">
<g clip-path="url(#clip0_225_28)">
<path d="M68.3811 53.6499H96.3935H124.406" stroke="white"/>
<path d="M147.958 53.6499H175.97H203.983" stroke="white"/>
<path d="M135.469 47.5105H140.822V60.1506H135.469V47.5105Z" fill="white"/>
<path d="M132.257 50.5802L135.826 47.5105V60.1506L132.079 56.9003L131.722 53.65L132.257 50.5802Z" fill="#35C243"/>
<path d="M140.464 47.5105L144.032 50.3997L144.568 54.0111L143.854 57.442L140.464 60.1506V47.5105Z" fill="#D13939"/>
<path fill-rule="evenodd" clip-rule="evenodd" d="M138.145 60.8728C141.988 60.8728 145.103 57.7198 145.103 53.8304C145.103 49.941 141.988 46.7881 138.145 46.7881C134.302 46.7881 131.186 49.941 131.186 53.8304C131.186 57.7198 134.302 60.8728 138.145 60.8728ZM138.145 60.1506C141.593 60.1506 144.389 57.321 144.389 53.8305C144.389 50.3401 141.593 47.5105 138.145 47.5105C134.696 47.5105 131.9 50.3401 131.9 53.8305C131.9 57.321 134.696 60.1506 138.145 60.1506Z" fill="#C9A445"/>
<path d="M6.42801 23.0137C6.36294 23.1004 6.29889 23.1948 6.23587 23.2968C6.12285 23.4835 6.04374 23.58 5.99852 23.5862C5.90809 23.5987 5.85568 23.5515 5.84128 23.4447C5.82688 23.3378 5.96285 23.0935 6.24917 22.7118C7.36022 21.1587 8.63918 20.2822 10.0861 20.0822C10.6738 20.0009 11.2154 20.0893 11.7107 20.3474C12.2191 20.5882 12.5237 21.0826 12.6244 21.8306C12.7869 23.0367 12.235 25.3211 10.9686 28.684C9.71521 32.0296 8.58029 34.659 7.56382 36.5722C8.79584 39.1077 10.8489 41.242 13.723 42.9752C16.6121 44.7062 19.3453 45.3937 21.9225 45.0374C23.6859 44.7937 25.0587 44.0441 26.041 42.7887C26.1451 42.6499 26.2386 42.4892 26.3215 42.3067C26.4215 42.1374 26.4955 42.0028 26.5434 41.9028C26.6085 41.8161 26.6712 41.7685 26.7315 41.7602C26.7918 41.7519 26.8281 41.7935 26.8404 41.8851C26.8754 42.1446 26.7158 42.5555 26.3617 43.1176C25.2232 44.9233 23.3729 46.0032 20.8108 46.3574C18.9419 46.6157 17.0285 46.4292 15.0704 45.7979C13.9798 45.4511 12.9459 44.9564 11.9689 44.3139C10.994 43.6867 10.042 42.8309 9.11294 41.7463C8.18387 40.6618 7.39351 39.4104 6.74186 37.9921C6.03771 39.1469 5.22907 40.1528 4.31594 41.0099C3.41789 41.8649 2.49411 42.358 1.5446 42.4893C0.610162 42.6184 0.10181 42.3777 0.0195409 41.767C-0.0750682 41.0648 0.173867 40.1207 0.766345 38.9347C1.3739 37.7466 2.12053 36.6793 3.00624 35.7327C3.89196 34.7861 4.65886 34.268 5.30693 34.1784C5.87965 34.0992 6.46613 34.578 7.06636 35.6147C8.46225 32.5293 9.48172 29.7837 10.1248 27.3778C10.7678 24.9719 11.0338 23.3567 10.9228 22.5323C10.7747 21.4332 10.3088 20.9378 9.52506 21.0461C8.31934 21.2128 7.28699 21.8686 6.42801 23.0137ZM6.34717 37.1136C6.14365 36.6286 5.89116 36.2358 5.5897 35.9354C5.28618 35.6197 4.99124 35.4816 4.70488 35.5212C3.86087 35.6379 3.04364 36.2951 2.25317 37.4929C1.46065 38.6754 1.12712 39.7323 1.25258 40.6636C1.28548 40.9078 1.38861 41.1035 1.56195 41.2506C1.73529 41.3977 1.9576 41.4525 2.22889 41.415C3.07289 41.2983 3.80589 40.8704 4.42787 40.1314C5.04985 39.3923 5.68962 38.3863 6.34717 37.1136Z" fill="white"/>
<path d="M26.9727 34.7294C28.3338 32.986 28.9843 31.8542 28.9242 31.3339C28.9101 31.2115 28.8426 31.1574 28.7218 31.1717C28.4196 31.2075 27.8366 32.3933 26.9727 34.7294ZM25.8046 28.5851C24.8528 28.6977 23.9277 29.2415 23.0294 30.2165C22.1462 31.1898 21.4711 32.309 21.0045 33.5742C20.5378 34.8394 20.3646 35.9923 20.4847 37.0329C20.6047 38.0736 21.0877 38.5438 21.9338 38.4437C22.8705 38.3329 23.8636 37.781 24.913 36.7881C25.0996 35.6181 25.6062 34.3016 26.4329 32.8387C27.1894 31.4306 27.8567 30.576 28.4345 30.2749C27.769 29.0196 26.8924 28.4563 25.8046 28.5851ZM25.6503 28.0449C27.1007 27.8732 28.1462 28.5717 28.7866 30.1402C29.1794 30.0937 29.3952 30.2388 29.434 30.5755C29.4817 30.9887 29.4533 31.3411 29.3491 31.6326C29.2432 31.9089 29.1603 32.1203 29.1007 32.267C29.0544 32.3966 28.9596 32.5707 28.8163 32.7893C28.658 33.0097 28.553 33.1617 28.5014 33.2454C27.9632 34.0227 27.3894 34.7576 26.7801 35.4502C26.6302 36.2746 26.5711 36.8245 26.6029 37.1C26.677 37.7428 27.2202 38.0042 28.2325 37.8844C29.2447 37.7647 30.4281 37.0041 31.7827 35.6028C33.1523 34.1997 34.0921 32.9871 34.6021 31.965C34.652 31.866 34.7072 31.813 34.7676 31.8058C34.8281 31.7986 34.8608 31.818 34.8661 31.8639C34.8714 31.9098 34.8625 31.9652 34.8393 32.03C34.1506 33.2284 33.4397 34.2355 32.7068 35.0513C31.9891 35.8654 31.0806 36.6864 29.9816 37.5146C28.8977 38.3409 27.8723 38.8113 26.9053 38.9257C25.6966 39.0688 25.0358 38.6506 24.9229 37.6711C24.9176 37.6252 24.9172 37.5555 24.9217 37.4618C24.9262 37.3682 24.9258 37.2985 24.9205 37.2526C23.3368 38.5259 21.9936 39.2278 20.8907 39.3583C19.6216 39.5085 18.8969 38.8031 18.7169 37.2421C18.5862 36.1097 18.8396 34.8542 19.477 33.4757C20.1277 32.0801 21.0214 30.8652 22.1579 29.831C23.3078 28.7797 24.4718 28.1843 25.6503 28.0449Z" fill="white"/>
<path d="M66.0834 16.0749C66.0968 16.2283 65.9586 16.4805 65.6686 16.8314C65.3938 17.1809 65.2177 17.4365 65.1402 17.5982C65.0628 17.7598 64.9786 17.8447 64.8877 17.8529C64.8119 17.8597 64.7686 17.8017 64.7579 17.6789C64.7122 17.1571 64.3193 16.682 63.5793 16.2535C62.8393 15.825 62.0754 15.6462 61.2875 15.717C59.7723 15.8531 58.3541 16.3982 57.0327 17.3522C55.02 18.9562 53.3727 20.9836 52.0908 23.4345C50.8227 25.8687 50.3009 28.3673 50.5254 30.9303C50.649 32.3423 51.1857 33.5006 52.1354 34.4052C53.0851 35.3098 54.2114 35.7036 55.5145 35.5865C57.6963 35.3904 59.3543 34.7928 60.4885 33.7938C61.6365 32.778 62.369 31.552 62.6861 30.1159C62.7599 29.7381 62.8347 29.5457 62.9104 29.5389C63.062 29.5253 63.2331 29.6491 63.424 29.9104C63.6135 30.1563 63.7164 30.3714 63.7325 30.5556C63.7486 30.7397 63.6523 31.0345 63.4434 31.44C63.2346 31.8455 62.8859 32.3099 62.3973 32.8334C61.9086 33.3568 61.3271 33.8654 60.6526 34.3591C59.9919 34.8361 59.144 35.2681 58.1089 35.655C57.0738 36.0419 55.9729 36.2878 54.8063 36.3926C53.0941 36.5465 51.6208 36.1143 50.3863 35.096C49.1656 34.0611 48.4806 32.6918 48.3314 30.9882C48.1217 28.5941 48.826 26.0868 50.4443 23.4664C52.0764 20.8294 54.1517 18.632 56.6702 16.8744C58.568 15.5282 60.5624 14.7612 62.6534 14.5733C63.8503 14.4658 64.8131 14.735 65.5416 15.3811C65.8894 15.6901 66.07 15.9214 66.0834 16.0749Z" fill="white"/>
<path d="M73.7746 30.9674C75.2088 29.2853 75.9071 28.183 75.8694 27.6606C75.8605 27.5376 75.7954 27.4807 75.674 27.4897C75.3706 27.5122 74.7374 28.6714 73.7746 30.9674ZM72.8701 24.7776C71.9143 24.8484 70.9669 25.3512 70.0278 26.286C69.1038 27.2196 68.3817 28.3081 67.8615 29.5517C67.3412 30.7953 67.1188 31.9395 67.1943 32.9845C67.2698 34.0294 67.7323 34.5204 68.5818 34.4574C69.5224 34.3877 70.5381 33.8799 71.629 32.9339C71.8654 31.7732 72.4278 30.4801 73.3163 29.0548C74.1322 27.6812 74.8352 26.8566 75.4254 26.5812C74.8141 25.2979 73.9624 24.6967 72.8701 24.7776ZM72.7391 24.2312C74.1955 24.1232 75.2101 24.8668 75.7828 26.462C76.1773 26.4328 76.3867 26.5872 76.4111 26.9252C76.4411 27.3401 76.3977 27.6909 76.2811 27.9777C76.1635 28.249 76.0717 28.4566 76.0058 28.6006C75.954 28.728 75.852 28.8978 75.6995 29.1099C75.5319 29.3232 75.4205 29.4705 75.3654 29.5518C74.7945 30.3047 74.1898 31.0139 73.5515 31.6791C73.3665 32.4962 73.284 33.043 73.304 33.3196C73.3506 33.965 73.8821 34.25 74.8986 34.1747C75.915 34.0994 77.1298 33.3914 78.5429 32.0508C79.9712 30.709 80.9619 29.5387 81.5151 28.5399C81.5691 28.4432 81.6265 28.3926 81.6872 28.3881C81.7478 28.3836 81.7798 28.4044 81.7832 28.4505C81.7865 28.4966 81.7752 28.5515 81.7493 28.6153C81.01 29.7824 80.2568 30.7574 79.4898 31.5403C78.7379 32.3221 77.7953 33.1026 76.6619 33.8818C75.5437 34.6599 74.4991 35.0849 73.5282 35.1568C72.3146 35.2468 71.6721 34.8 71.6011 33.8165C71.5978 33.7704 71.6004 33.7007 71.609 33.6074C71.6175 33.5141 71.6201 33.4444 71.6167 33.3983C69.9801 34.601 68.6081 35.2434 67.5007 35.3254C66.2263 35.4199 65.5324 34.6834 65.4192 33.116C65.3371 31.9789 65.644 30.7357 66.3396 29.3864C67.0493 28.0207 67.994 26.8461 69.1736 25.8626C70.3673 24.8627 71.5558 24.3189 72.7391 24.2312Z" fill="white"/>
<path d="M82.0766 31.7529L82.0648 32.3554C82.0986 32.9554 82.2876 33.4692 82.6316 33.8968C82.99 34.3082 83.5184 34.4938 84.217 34.4534C84.9308 34.4121 85.7882 33.9459 86.7893 33.0547C87.8047 32.1472 88.6637 31.0327 89.3663 29.7112C90.0832 28.3734 90.4105 27.1507 90.3481 26.0431C90.2666 24.5972 89.8311 23.897 89.0414 23.9426C88.5858 23.969 88.0798 24.1834 87.5235 24.5859C86.9672 24.9885 86.4465 25.4816 85.9614 26.0652C85.1039 27.0716 84.4799 27.8947 84.0893 28.5346C84.0338 28.6304 83.9756 28.68 83.9149 28.6836C83.8541 28.6871 83.8225 28.6657 83.8199 28.6196C83.8173 28.5735 83.8294 28.5187 83.8563 28.4554C85.9541 25.1242 87.8686 23.4085 89.5998 23.3085C90.2984 23.2681 90.8759 23.5125 91.3323 24.0417C91.7888 24.5709 92.0399 25.2432 92.0859 26.0585C92.1318 26.8737 91.8872 27.8061 91.3521 28.8556C90.817 29.9051 90.1392 30.8548 89.3186 31.7047C88.498 32.5547 87.5866 33.2787 86.5842 33.8767C85.597 34.4739 84.7466 34.7932 84.0328 34.8344C83.3342 34.8748 82.6135 34.793 81.8707 34.589C81.1431 34.3841 80.7604 34.0821 80.7227 33.6831C80.7114 33.4831 80.888 33.1025 81.2526 32.5413C81.6314 31.9638 81.8892 31.6711 82.0259 31.6632C82.0562 31.6615 82.0731 31.6914 82.0766 31.7529Z" fill="white"/>
<path d="M103.786 29.3231C105.273 27.6885 106.006 26.6095 105.985 26.0861C105.98 25.9629 105.916 25.9039 105.795 25.9089C105.491 25.9215 104.821 27.0596 103.786 29.3231ZM103.078 23.1072C102.12 23.1469 101.158 23.6187 100.189 24.5224C99.2364 25.4255 98.4802 26.4901 97.9209 27.7161C97.3615 28.9422 97.103 30.0786 97.1453 31.1255C97.1877 32.1723 97.6344 32.6781 98.4855 32.6427C99.4279 32.6036 100.459 32.129 101.579 31.219C101.852 30.0665 102.455 28.7924 103.389 27.3967C104.248 26.0502 104.976 25.249 105.575 24.9928C105.005 23.6903 104.172 23.0618 103.078 23.1072ZM102.964 22.5568C104.423 22.4962 105.414 23.2724 105.936 24.8853C106.331 24.8689 106.536 25.03 106.549 25.3687C106.566 25.7844 106.512 26.1336 106.386 26.4164C106.26 26.6838 106.162 26.8883 106.091 27.03C106.035 27.1557 105.928 27.3221 105.769 27.5292C105.595 27.7369 105.479 27.8805 105.421 27.96C104.826 28.694 104.2 29.3831 103.541 30.0273C103.33 30.8379 103.23 31.3818 103.241 31.6589C103.267 32.3054 103.79 32.6076 104.808 32.5653C105.826 32.523 107.063 31.8549 108.518 30.5609C109.988 29.2662 111.015 28.1287 111.599 27.1483C111.657 27.0534 111.715 27.0047 111.776 27.0022C111.837 26.9997 111.868 27.0215 111.87 27.0677C111.872 27.1139 111.859 27.1684 111.831 27.2312C111.055 28.3737 110.272 29.3238 109.48 30.0814C108.704 30.8384 107.737 31.5879 106.58 32.3299C105.437 33.0712 104.38 33.4621 103.407 33.5024C102.191 33.5529 101.563 33.0855 101.524 32.1003C101.522 32.0541 101.527 31.9845 101.538 31.8915C101.549 31.7985 101.554 31.7289 101.552 31.6827C99.8786 32.8316 98.4869 33.4291 97.3774 33.4752C96.1008 33.5282 95.4307 32.7695 95.3671 31.1993C95.321 30.0601 95.667 28.8275 96.405 27.5015C97.1576 26.1595 98.1389 25.0162 99.3491 24.0716C100.574 23.1109 101.779 22.606 102.964 22.5568Z" fill="white"/>
<path d="M128.44 28.2447C127.622 27.1131 127.037 26.4105 126.684 26.1368C126.331 25.8632 125.995 25.7281 125.676 25.7315C124.778 25.7409 123.895 26.3204 123.024 27.4698C122.169 28.6037 121.746 29.6251 121.755 30.5341C121.765 31.5202 122.379 32.0068 123.596 31.9939C124.234 31.9871 124.992 31.6787 125.868 31.0685C126.759 30.4427 127.616 29.5014 128.44 28.2447ZM130.207 26.9779C130.362 27.2536 130.579 27.6904 130.859 28.2884C131.139 28.8864 131.388 29.3845 131.605 29.7829C131.822 30.1658 132.1 30.5789 132.439 31.0222C133.133 31.9085 134.103 32.3451 135.35 32.3319C136.613 32.3186 137.811 31.9438 138.944 31.2076C140.077 30.4715 141.011 29.5294 141.744 28.3814C142.493 27.2179 143.073 25.9405 143.485 24.5494C143.911 23.1581 144.118 21.7923 144.104 20.4519C144.059 16.0763 142.009 13.494 137.955 12.7047C136.718 15.2602 135.339 17.9559 133.817 20.7917C132.309 23.612 131.106 25.6741 130.207 26.9779ZM126.33 18.3747C126.332 18.5595 126.38 18.7748 126.474 19.0203C126.474 19.0819 126.422 19.1133 126.315 19.1144C126.209 19.1156 126.063 19.0246 125.879 18.8417C125.694 18.6587 125.541 18.5217 125.418 18.4305C125.173 18.2482 125.049 18.0646 125.047 17.8797C125.036 16.8167 125.543 15.8252 126.568 14.9052C127.609 13.9851 128.871 13.2784 130.357 12.785C131.843 12.2763 133.323 12.0141 134.799 11.9985C135.468 11.9914 135.955 12.0017 136.259 12.0293C136.408 11.6733 136.48 11.3336 136.477 11.01C136.47 10.3629 136.283 9.90267 135.915 9.62921C135.562 9.35558 135.067 9.22214 134.428 9.22889C133.804 9.23548 133.25 9.3415 132.765 9.54693C132.296 9.7522 131.91 9.95659 131.608 10.1601C131.321 10.3634 131.162 10.4652 131.132 10.4656C131.041 10.4665 130.995 10.4208 130.994 10.3284C130.993 10.2667 131.159 10.1109 131.491 9.86086C131.823 9.61082 132.315 9.35138 132.966 9.08255C133.617 8.81372 134.232 8.67625 134.81 8.67015C135.403 8.66388 135.929 8.71996 136.386 8.83839C136.844 8.94142 137.272 9.18343 137.671 9.56442C138.086 9.92984 138.296 10.4207 138.303 11.0369C138.306 11.3759 138.234 11.7773 138.087 12.2411C143.359 13.0637 146.022 16.1635 146.078 21.5404C146.093 22.9887 145.818 24.4092 145.255 25.8019C144.691 27.1946 143.928 28.4123 142.965 29.4548C142.002 30.4819 140.847 31.3185 139.499 31.9645C138.167 32.5949 136.779 32.9178 135.334 32.933C134.269 32.9443 133.263 32.7392 132.315 32.3178C131.979 32.1672 131.596 31.8939 131.166 31.4979C130.751 31.0862 130.428 30.7506 130.197 30.4911C129.982 30.2315 129.72 29.9107 129.412 29.5287C129.118 29.1312 128.933 28.8866 128.856 28.795C128.06 29.7279 127.345 30.4751 126.712 31.0365C126.078 31.5824 125.376 32.0444 124.604 32.4224C123.847 32.7848 123.187 32.9689 122.624 32.9749C122.062 32.9808 121.566 32.8474 121.137 32.5746C120.708 32.3018 120.491 31.8726 120.485 31.2872C120.479 30.7017 120.708 30.0059 121.171 29.1998C121.634 28.3782 122.197 27.6249 122.859 26.94C123.521 26.2396 124.253 25.6463 125.054 25.1602C125.87 24.6739 126.59 24.4275 127.214 24.4209C128.005 24.4125 128.817 24.9895 129.651 26.1517C130.994 23.6875 132.254 21.1858 133.43 18.6463C134.605 16.0915 135.489 14.0251 136.081 12.4472C135.777 12.4196 135.305 12.4092 134.666 12.4159C133.419 12.4291 132.144 12.7276 130.842 13.3115C129.539 13.88 128.459 14.631 127.602 15.5646C126.745 16.4982 126.321 17.4348 126.33 18.3747Z" fill="white"/>
<path d="M146.364 29.5613L145.447 30.2959C145.417 30.2957 145.402 30.2648 145.402 30.2032C145.403 30.1416 145.456 30.0571 145.563 29.9498C145.67 29.8426 145.968 29.6054 146.457 29.2383C146.813 28.1308 147.343 27.086 148.048 26.1038C148.753 25.1215 149.472 24.332 150.206 23.7351C150.939 23.1228 151.634 22.6489 152.29 22.3135C152.945 21.9628 153.464 21.7884 153.844 21.7905C154.635 21.7948 155.029 22.1051 155.025 22.7214C155.024 22.9526 154.939 23.1909 154.771 23.4365C154.602 23.6667 154.289 23.9577 153.83 24.3096C153.387 24.6616 152.96 24.9828 152.548 25.2733C152.151 25.5484 151.509 25.9841 150.624 26.5801C149.754 27.1763 149.006 27.696 148.379 28.1394C148.101 28.9237 147.961 29.6548 147.957 30.3327C147.954 30.9953 148.126 31.4893 148.474 31.8147C148.837 32.1403 149.437 32.3054 150.274 32.3099C151.126 32.3146 152.101 32.0195 153.199 31.4246C154.313 30.8298 155.366 30.1037 156.36 29.2463C157.353 28.3735 158.087 27.5763 158.563 26.8547C158.624 26.7626 158.685 26.7167 158.746 26.7171C158.807 26.7174 158.837 26.7407 158.837 26.7869C158.837 26.8331 158.821 26.887 158.79 26.9484C157.09 29.1579 155.043 30.8723 152.648 32.0918C151.489 32.6402 150.362 32.9113 149.267 32.9053C147.198 32.894 146.168 32.1642 146.175 30.7159C146.176 30.5002 146.239 30.1153 146.364 29.5613ZM148.564 27.7244C150.366 26.4246 151.649 25.4224 152.414 24.7179C153.178 23.9979 153.561 23.4376 153.563 23.037C153.566 22.6364 153.399 22.4352 153.065 22.4334C152.319 22.4293 151.518 22.9719 150.66 24.0611C149.803 25.135 149.104 26.3561 148.564 27.7244Z" fill="white"/>
<path d="M166.913 17.7978C168.179 16.7732 169.283 15.8458 170.226 15.0156C171.184 14.1703 172.199 13.1796 173.269 12.0435C174.354 10.9077 175.248 9.8377 175.951 8.83355C176.654 7.81399 177.244 6.70761 177.722 5.5144C178.2 4.30579 178.449 3.1392 178.469 2.01462C178.474 1.75273 178.425 1.53608 178.321 1.36467C178.218 1.17785 178.075 1.08276 177.893 1.0794C177.208 1.06681 176.171 2.04169 174.782 4.00406C173.393 5.95102 171.92 8.38184 170.361 11.2965L166.913 17.7978ZM164.267 20.2918C162.71 21.3882 161.647 22.1545 161.076 22.5909C160.212 23.2531 159.75 23.5836 159.689 23.5825C159.628 23.5814 159.598 23.55 159.599 23.4884C159.601 23.4267 159.647 23.366 159.74 23.306C161.619 21.9845 163.238 20.7815 164.597 19.6969L168.703 12.1444C168.876 11.824 169.223 11.16 169.743 10.1525C170.278 9.12986 170.656 8.41253 170.877 8.00051C171.097 7.58849 171.466 6.97115 171.982 6.14851C172.499 5.32586 172.96 4.6794 173.364 4.20911C174.452 2.90386 175.566 1.88415 176.705 1.15001C177.768 0.368243 178.719 -0.0149434 179.555 0.000445629C179.829 0.00548201 180.024 0.124658 180.142 0.357973C180.26 0.591289 180.316 0.815783 180.312 1.03146C180.267 3.58871 179.085 6.27147 176.768 9.07974C175.99 10.0209 175.253 10.8549 174.555 11.5817C173.873 12.3089 173.006 13.1328 171.955 14.0535C170.656 15.2007 168.85 16.6931 166.535 18.5306L163.322 24.6202C162.754 25.7192 162.313 26.5741 161.998 27.1847C161.698 27.7802 161.389 28.4757 161.07 29.2712C160.767 30.0669 160.612 30.665 160.605 31.0656C160.597 31.4661 160.713 31.815 160.951 32.1121C161.189 32.3939 161.506 32.5384 161.902 32.5457C162.86 32.5633 163.93 32.2671 165.112 31.6571C166.295 31.047 167.388 30.3197 168.392 29.4752C169.396 28.6153 170.141 27.8277 170.625 27.1123C170.688 27.021 170.749 26.9759 170.81 26.977C170.871 26.9781 170.901 27.0018 170.9 27.048C170.899 27.0942 170.883 27.1479 170.852 27.2089C170.011 28.303 169.173 29.2045 168.339 29.9134C167.52 30.6226 166.649 31.2384 165.727 31.7608C164.805 32.2832 163.916 32.6521 163.06 32.8675C162.219 33.0832 161.487 33.1853 160.863 33.1738C160.24 33.1624 159.749 32.9838 159.39 32.6382C159.031 32.308 158.855 31.8964 158.864 31.4034C158.873 30.9104 158.958 30.4343 159.118 29.9749C159.294 29.5004 159.461 29.1028 159.619 28.7821C159.792 28.4617 160.13 27.8438 160.633 26.9285L164.267 20.2918Z" fill="white"/>
<path d="M178.997 18.1625C180.276 17.1543 181.392 16.2413 182.345 15.4233C183.314 14.5904 184.341 13.6129 185.425 12.4907C186.525 11.369 187.432 10.3107 188.147 9.31569C188.863 8.3053 189.467 7.20664 189.96 6.01969C190.453 4.81735 190.717 3.65407 190.752 2.52985C190.76 2.26804 190.713 2.05077 190.612 1.87803C190.511 1.6899 190.369 1.59297 190.187 1.58725C189.503 1.56583 188.454 2.52724 187.04 4.4715C185.626 6.40036 184.122 8.81195 182.527 11.7063L178.997 18.1625ZM176.32 20.6221C174.75 21.6983 173.677 22.4508 173.101 22.8798C172.229 23.5308 171.762 23.8553 171.701 23.8534C171.641 23.8515 171.611 23.8197 171.613 23.7581C171.615 23.6965 171.662 23.6363 171.755 23.5776C173.652 22.2805 175.286 21.0984 176.658 20.0315L180.858 12.5326C181.036 12.2145 181.391 11.555 181.923 10.5543C182.472 9.53872 182.859 8.82633 183.084 8.41719C183.31 8.00805 183.686 7.39552 184.213 6.57962C184.74 5.76372 185.209 5.12325 185.619 4.65822C186.723 3.36713 187.85 2.36189 188.998 1.64251C190.072 0.874553 191.026 0.503669 191.863 0.52986C192.136 0.538432 192.33 0.660125 192.445 0.89494C192.56 1.12975 192.614 1.35496 192.607 1.57057C192.529 4.12703 191.314 6.79431 188.961 9.57242C188.172 10.5034 187.424 11.3278 186.717 12.0456C186.026 12.7639 185.149 13.5765 184.086 14.4835C182.773 15.614 180.948 17.0829 178.61 18.8903L175.321 24.9379C174.74 26.0296 174.287 26.8786 173.965 27.4851C173.657 28.0767 173.34 28.7681 173.011 29.5594C172.698 30.3512 172.535 30.9473 172.523 31.3477C172.51 31.7481 172.622 32.0984 172.856 32.3986C173.091 32.6835 173.406 32.8321 173.801 32.8445C174.759 32.8745 175.833 32.5921 177.023 31.9973C178.213 31.4026 179.315 30.6895 180.33 29.858C181.345 29.0112 182.099 28.2332 182.592 27.5241C182.656 27.4336 182.718 27.3893 182.779 27.3913C182.84 27.3932 182.87 27.4172 182.868 27.4634C182.867 27.5096 182.85 27.563 182.818 27.6237C181.963 28.7068 181.114 29.5974 180.271 30.2955C179.443 30.9941 178.564 31.5986 177.636 32.109C176.707 32.6195 175.813 32.9769 174.955 33.1812C174.112 33.386 173.378 33.4786 172.755 33.4591C172.132 33.4396 171.643 33.2547 171.288 32.9045C170.933 32.5696 170.763 32.1558 170.778 31.663C170.793 31.1702 170.884 30.6952 171.05 30.2379C171.232 29.7658 171.404 29.3703 171.566 29.0517C171.743 28.7335 172.089 28.1201 172.603 27.2113L176.32 20.6221Z" fill="white"/>
<path d="M190.586 29.7742C192.207 28.2765 193.03 27.266 193.053 26.7427C193.059 26.6196 193.001 26.5552 192.88 26.5495C192.576 26.5353 191.811 27.6102 190.586 29.7742ZM190.413 23.5194C189.456 23.4748 188.456 23.8601 187.414 24.6753C186.387 25.4912 185.543 26.4852 184.881 27.6574C184.218 28.8296 183.863 29.939 183.816 30.9856C183.768 32.0322 184.17 32.5754 185.021 32.615C185.963 32.6589 187.031 32.2769 188.225 31.4688C188.596 30.3447 189.306 29.1284 190.355 27.82C191.326 26.5542 192.121 25.8201 192.739 25.6175C192.283 24.2698 191.507 23.5704 190.413 23.5194ZM190.347 22.9611C191.806 23.0291 192.726 23.8894 193.108 25.5422C193.503 25.5606 193.693 25.7391 193.678 26.0777C193.659 26.4933 193.575 26.8364 193.425 27.1071C193.277 27.3624 193.161 27.5575 193.079 27.6925C193.012 27.8128 192.891 27.9691 192.715 28.1614C192.524 28.353 192.396 28.4858 192.331 28.5599C191.676 29.2389 190.993 29.8703 190.281 30.4541C190.002 31.2431 189.856 31.7761 189.843 32.0532C189.814 32.6996 190.308 33.0465 191.326 33.094C192.344 33.1415 193.633 32.5846 195.193 31.4234C196.769 30.2629 197.89 29.22 198.556 28.2948C198.621 28.2053 198.684 28.1619 198.745 28.1648C198.806 28.1676 198.835 28.1921 198.833 28.2383C198.831 28.2845 198.813 28.3376 198.78 28.3978C197.909 29.4677 197.047 30.3453 196.193 31.0304C195.355 31.7163 194.328 32.3779 193.111 33.0153C191.91 33.6533 190.823 33.9497 189.85 33.9044C188.635 33.8477 188.049 33.3269 188.094 32.3418C188.096 32.2956 188.107 32.2267 188.126 32.1351C188.146 32.0435 188.156 31.9746 188.158 31.9284C186.392 32.9257 184.955 33.3986 183.845 33.3469C182.569 33.2874 181.967 32.4727 182.038 30.9028C182.09 29.7638 182.54 28.5663 183.389 27.3102C184.254 26.0395 185.329 24.9868 186.616 24.1522C187.918 23.3029 189.162 22.9058 190.347 22.9611Z" fill="white"/>
<path d="M211.861 26.9401C214.121 26.5327 216.187 26.0558 218.06 25.5095C219.949 24.9643 221.614 24.1541 223.055 23.0788C224.513 21.9894 225.286 20.884 225.373 19.7627C225.425 19.0869 225.251 18.478 224.851 17.9361C224.45 17.3942 223.856 17.0918 223.067 17.0291C219.989 16.784 216.253 20.0876 211.861 26.9401ZM212.664 20.7215L212.071 20.6974C211.92 20.6854 211.848 20.6256 211.856 20.518C211.866 20.3952 212.325 20.2772 213.234 20.1641C214.159 20.0368 214.721 19.9811 214.918 19.9968C215.13 20.0137 215.231 20.0912 215.22 20.2295C215.209 20.3677 214.59 21.4698 213.362 23.5357C214.038 22.4922 214.785 21.5162 215.603 20.6077C216.949 19.1848 218.429 18.0121 220.041 17.0895C221.67 16.1528 223.137 15.7364 224.441 15.8402C225.366 15.9138 226.097 16.2271 226.634 16.7798C227.187 17.3184 227.432 18.0025 227.367 18.8319C227.304 19.646 227.049 20.383 226.601 21.0428C226.153 21.7026 225.62 22.2784 225.002 22.7701C224.384 23.2619 223.661 23.7298 222.833 24.1739C221.385 24.9396 219.903 25.5557 218.387 26.0223C216.887 26.4747 214.632 27.0216 211.622 27.6629C209.446 31.3226 208.068 33.7475 207.487 34.9377C207.415 35.0865 207.279 35.1607 207.081 35.1603C206.881 35.1754 206.599 35.1761 206.234 35.1624C205.884 35.15 205.592 35.1732 205.359 35.2319C205.139 35.3071 204.974 35.3789 204.862 35.4473C204.749 35.5156 204.64 35.5456 204.534 35.5371C204.428 35.5287 204.378 35.4861 204.384 35.4093C204.389 35.3478 204.443 35.2362 204.547 35.0745C204.65 34.9282 204.787 34.7381 204.958 34.5044C206.72 32.0483 207.913 30.335 208.538 29.3647C209.162 28.3944 209.675 27.5929 210.075 26.9601C210.476 26.312 210.816 25.7596 211.096 25.3027C211.375 24.8459 211.7 24.2999 212.07 23.6647C212.844 22.3354 213.246 21.4865 213.274 21.1178C213.292 20.8874 213.089 20.7553 212.664 20.7215Z" fill="white"/>
<path d="M227.986 27.5529C227.841 27.6317 227.745 27.6689 227.7 27.6645C227.67 27.6616 227.658 27.6295 227.663 27.5681C227.669 27.5068 227.72 27.4498 227.817 27.3973C228.85 26.8164 229.715 26.5597 230.411 26.6273C231.441 26.7271 231.911 27.2525 231.821 28.2034C231.789 28.5408 231.472 29.1447 230.87 30.0151C230.27 30.8701 229.665 31.7711 229.056 32.7181C228.447 33.6651 228.116 34.4224 228.062 34.9898C227.987 35.7874 228.479 36.2376 229.539 36.3404C230.054 36.3903 230.751 36.2102 231.63 35.8002C232.524 35.3916 233.315 34.9497 234.002 34.4746C234.688 33.9994 235.299 33.5169 235.834 33.0271C236.37 32.5373 236.699 32.2055 236.822 32.0317C236.961 31.8594 237.061 31.7762 237.121 31.7821C237.182 31.7879 237.21 31.8139 237.205 31.8599C237.201 31.9059 237.181 31.9581 237.145 32.0165C236.307 32.9569 235.404 33.7825 234.435 34.4934C233.378 35.335 232.247 35.9838 231.042 36.4397C229.839 36.8803 228.897 37.0675 228.216 37.0014C227.534 36.9354 227.019 36.7306 226.669 36.3871C226.32 36.0437 226.174 35.5652 226.232 34.9517C226.29 34.3382 226.648 33.5371 227.307 32.5485C227.966 31.5599 228.618 30.6479 229.262 29.8127C229.908 28.9621 230.244 28.3911 230.272 28.0997C230.301 27.7929 230.255 27.5486 230.135 27.3667C230.03 27.1862 229.879 27.0864 229.682 27.0673C229.228 27.0233 228.662 27.1851 227.986 27.5529ZM233.656 21.8806C233.688 21.5431 233.873 21.2051 234.21 20.8663C234.518 20.5247 234.808 20.367 235.08 20.3935C235.353 20.4199 235.549 20.5241 235.67 20.706C235.791 20.8726 235.838 21.1016 235.811 21.393C235.783 21.6844 235.616 22.001 235.309 22.3426C235.003 22.669 234.668 22.8145 234.305 22.7793C233.82 22.7323 233.604 22.4327 233.656 21.8806Z" fill="white"/>
<path d="M240.634 38.8933C240.385 38.928 239.879 39.0119 239.115 39.145C237.542 39.4062 236.097 39.7512 234.781 40.1801C233.464 40.6244 232.131 41.2141 230.782 41.9494C229.432 42.7 228.188 43.532 227.049 44.4453C225.91 45.374 224.966 46.4017 224.218 47.5284C223.468 48.6704 223.034 49.7929 222.916 50.8958C222.856 51.4626 222.97 51.9633 223.261 52.3981C223.549 52.8483 223.935 53.0999 224.419 53.153C225.387 53.2593 226.386 53.1443 227.417 52.8081C228.43 52.4855 229.382 52.0243 230.273 51.4247C231.163 50.8251 232.069 50.0799 232.991 49.1893C233.911 48.3139 234.731 47.4355 235.453 46.5538C236.156 45.7012 236.87 44.7566 237.593 43.7202C238.729 42.1092 239.743 40.5002 240.634 38.8933ZM242.999 37.8048C244.411 37.3399 245.755 36.6506 247.031 35.7368C248.308 34.8078 249.22 34.009 249.766 33.3406C249.836 33.2553 249.901 33.216 249.962 33.2226C250.022 33.2293 250.05 33.2556 250.045 33.3015C250.04 33.3475 250.02 33.3994 249.983 33.4574C248.932 34.5509 248.034 35.3666 247.288 35.9046C245.943 36.8883 244.435 37.6835 242.764 38.2904C241.498 40.9719 239.624 43.6798 237.144 46.414C235.842 47.8519 234.488 49.1368 233.082 50.2686C231.675 51.4005 230.173 52.2894 228.573 52.9351C226.959 53.5792 225.434 53.8224 223.997 53.6646C223.196 53.5766 222.515 53.2849 221.956 52.7896C221.381 52.3079 221.142 51.6075 221.24 50.6885C221.339 49.7694 221.726 48.7968 222.402 47.7707C223.063 46.7429 223.865 45.8236 224.808 45.0129C225.767 44.2038 226.82 43.4438 227.967 42.7329C230.097 41.417 232.143 40.4561 234.105 39.8501C235.354 39.4759 237.642 38.9677 240.97 38.3258C241.308 37.743 241.509 37.1529 241.572 36.5555C241.636 35.9581 241.529 35.5279 241.252 35.2649C240.989 35.0036 240.487 34.8322 239.746 34.7509C238.665 35.562 237.844 35.9368 237.285 35.8754C237.133 35.8588 237.063 35.8045 237.073 35.7126C237.105 35.4063 237.385 35.1503 237.912 34.9447C238.441 34.7238 238.922 34.5829 239.357 34.5222C239.557 34.3736 240.037 34.0312 240.798 33.4949C241.575 32.9602 242.204 32.5178 242.685 32.1677C243.166 31.8176 243.67 31.3926 244.198 30.8926C244.728 30.3774 245.082 29.9281 245.261 29.5447C243.213 30.0947 241.584 30.3033 240.374 30.1704C239.663 30.0924 239.096 29.8906 238.672 29.565C238.264 29.2258 238.074 28.926 238.102 28.6656C238.11 28.589 238.332 28.4506 238.766 28.2504C239.203 28.0348 239.485 27.8954 239.614 27.8321C239.76 27.7551 239.858 27.7038 239.906 27.6781C239.972 27.6388 240.02 27.6208 240.05 27.6242L240.09 27.6751C240.087 27.7057 240.035 27.762 239.934 27.844C239.834 27.9259 239.777 28.0281 239.764 28.1507C239.752 28.2579 239.808 28.3803 239.931 28.5178C240.054 28.6553 240.335 28.8178 240.774 29.0055C241.215 29.1779 241.843 29.3089 242.66 29.3986C243.628 29.5049 244.914 29.2819 246.518 28.7297C246.899 28.6011 247.12 28.5401 247.18 28.5467C247.256 28.555 247.291 28.5898 247.284 28.6511C247.258 28.8962 246.786 29.4411 245.87 30.2858C244.953 31.1305 243.012 32.5369 240.048 34.505C241.666 34.6827 242.665 35.0714 243.044 35.671C243.226 35.97 243.297 36.3109 243.256 36.6939C243.215 37.0768 243.13 37.4471 242.999 37.8048Z" fill="white"/>
<path d="M253.519 40.4106C253.27 40.4418 252.763 40.5186 251.997 40.6409C250.421 40.8798 248.971 41.2045 247.65 41.6148C246.326 42.0405 244.985 42.6114 243.627 43.3276C242.266 44.0591 241.011 44.8734 239.86 45.7707C238.708 46.6832 237.75 47.6975 236.986 48.8136C236.221 49.9449 235.772 51.0612 235.639 52.1623C235.57 52.7281 235.678 53.2305 235.962 53.6693C236.245 54.1235 236.627 54.3805 237.11 54.4405C238.077 54.5604 239.077 54.4595 240.112 54.1378C241.13 53.8295 242.089 53.3818 242.987 52.7948C243.886 52.2078 244.802 51.4755 245.736 50.5979C246.668 49.7356 247.5 48.8688 248.234 47.9974C248.949 47.1547 249.675 46.2203 250.412 45.1941C251.571 43.5993 252.606 42.0048 253.519 40.4106ZM255.9 39.3555C257.317 38.9106 258.671 38.2402 259.959 37.3446C261.249 36.4336 262.172 35.6478 262.727 34.9871C262.798 34.9028 262.864 34.8644 262.924 34.8719C262.985 34.8794 263.012 34.9061 263.007 34.952C263.001 34.9978 262.98 35.0495 262.942 35.1069C261.877 36.1855 260.967 36.9885 260.214 37.5159C258.856 38.4806 257.337 39.2545 255.658 39.8377C254.355 42.5012 252.444 45.1824 249.926 47.8814C248.605 49.3008 247.234 50.5665 245.812 51.6784C244.39 52.7904 242.875 53.658 241.267 54.2811C239.644 54.9024 238.116 55.1241 236.681 54.9461C235.881 54.8468 235.205 54.5456 234.653 54.0424C234.084 53.5526 233.855 52.849 233.966 51.9314C234.077 51.0138 234.477 50.0467 235.167 49.0302C235.842 48.0118 236.657 47.104 237.611 46.3066C238.581 45.5111 239.645 44.766 240.801 44.0713C242.949 42.7855 245.008 41.8536 246.978 41.2754C248.232 40.9187 250.527 40.4429 253.863 39.8479C254.209 39.2699 254.418 38.6827 254.49 38.0862C254.562 37.4898 254.461 37.0581 254.187 36.7913C253.928 36.5263 253.428 36.3479 252.689 36.256C251.596 37.0519 250.771 37.4151 250.212 37.3458C250.061 37.327 249.991 37.2718 250.002 37.18C250.039 36.8742 250.323 36.6222 250.852 36.424C251.384 36.2105 251.867 36.0765 252.303 36.0219C252.505 35.8762 252.99 35.5406 253.758 35.015C254.542 34.4913 255.177 34.0579 255.663 33.7146C256.148 33.3713 256.659 32.9534 257.193 32.4609C257.73 31.9531 258.09 31.5089 258.274 31.1281C256.219 31.6492 254.587 31.8348 253.379 31.6849C252.67 31.5968 252.105 31.3871 251.686 31.0556C251.283 30.7107 251.097 30.4082 251.129 30.1482C251.138 30.0718 251.361 29.9365 251.798 29.7424C252.237 29.533 252.522 29.3975 252.652 29.3361C252.799 29.2612 252.897 29.2112 252.946 29.1863C253.012 29.1479 253.06 29.1306 253.09 29.1343L253.13 29.1858C253.126 29.2164 253.074 29.272 252.972 29.3525C252.87 29.433 252.812 29.5344 252.797 29.6568C252.784 29.7638 252.838 29.887 252.959 30.0262C253.08 30.1654 253.359 30.3319 253.795 30.5258C254.234 30.7043 254.86 30.8442 255.676 30.9454C256.642 31.0653 257.931 30.8605 259.543 30.3309C259.926 30.2077 260.147 30.1498 260.208 30.1573C260.283 30.1666 260.317 30.2019 260.31 30.2631C260.28 30.5078 259.801 31.046 258.873 31.8777C257.945 32.7094 255.985 34.0883 252.994 36.0145C254.609 36.215 255.603 36.6177 255.974 37.2226C256.152 37.5241 256.218 37.866 256.172 38.2483C256.125 38.6307 256.035 38.9997 255.9 39.3555Z" fill="white"/>
<path d="M270.648 37.994C272.398 36.6528 273.308 35.7227 273.379 35.2038C273.396 35.0817 273.344 35.0122 273.223 34.9953C272.922 34.9531 272.064 35.9526 270.648 37.994ZM271.041 31.7495C270.092 31.6164 269.061 31.9074 267.95 32.6227C266.854 33.34 265.923 34.2517 265.158 35.3576C264.392 36.4636 263.939 37.5354 263.797 38.5733C263.655 39.6111 264.006 40.1892 264.85 40.3075C265.784 40.4385 266.882 40.1569 268.144 39.4628C268.615 38.3778 269.432 37.2324 270.595 36.0266C271.676 34.8561 272.534 34.1987 273.168 34.0542C272.835 32.6699 272.126 31.9016 271.041 31.7495ZM271.026 31.1874C272.472 31.3902 273.311 32.3322 273.542 34.0134C273.933 34.0683 274.106 34.2636 274.06 34.5994C274.004 35.0115 273.889 35.3454 273.716 35.6011C273.545 35.8415 273.413 36.0252 273.319 36.1519C273.242 36.2656 273.107 36.41 272.914 36.5852C272.706 36.7582 272.567 36.8787 272.496 36.9465C271.782 37.562 271.045 38.1274 270.283 38.6428C269.934 39.4026 269.74 39.9199 269.702 40.1946C269.615 40.8356 270.076 41.2269 271.085 41.3685C272.095 41.51 273.429 41.0749 275.087 40.0631C276.761 39.0534 277.971 38.1187 278.719 37.2591C278.791 37.176 278.858 37.1387 278.918 37.1471C278.978 37.1556 279.005 37.1827 278.999 37.2285C278.993 37.2742 278.97 37.3256 278.932 37.3824C277.968 38.3672 277.03 39.1612 276.119 39.7644C275.222 40.3697 274.139 40.9334 272.87 41.4554C271.616 41.9795 270.507 42.174 269.543 42.0388C268.337 41.8697 267.801 41.2968 267.935 40.3201C267.941 40.2743 267.958 40.2067 267.985 40.1172C268.013 40.0277 268.03 39.9601 268.036 39.9143C266.188 40.7439 264.713 41.0816 263.613 40.9274C262.348 40.7499 261.821 39.8828 262.034 38.3261C262.188 37.1967 262.745 36.0459 263.704 34.8737C264.679 33.6884 265.846 32.7398 267.202 32.0278C268.576 31.3027 269.85 31.0226 271.026 31.1874Z" fill="white"/>
</g>
<defs>
<clipPath id="clip0_225_28">
<rect width="279" height="61" fill="white"/>
</clipPath>
</defs>
</svg>
