<svg width="42" height="42" viewBox="0 0 42 42" fill="none" xmlns="http://www.w3.org/2000/svg">
<path d="M21.1889 0.881836C9.99711 0.881836 0.922485 9.96872 0.922485 21.1756C0.922485 32.3824 9.99711 41.4693 21.1889 41.4693C32.3806 41.4693 41.4552 32.3824 41.4552 21.1756C41.4552 9.96872 32.3806 0.881836 21.1889 0.881836ZM30.9285 16.1791C30.942 16.392 30.942 16.614 30.942 16.8314C30.942 23.4813 25.8845 31.1412 16.6425 31.1412C13.7925 31.1412 11.1507 30.3123 8.92499 28.8854C9.33212 28.9307 9.72117 28.9488 10.1374 28.9488C12.4897 28.9488 14.652 28.1515 16.3756 26.8016C14.168 26.7563 12.3133 25.3068 11.6799 23.3137C12.4535 23.4269 13.1502 23.4269 13.9463 23.2231C12.8096 22.9918 11.788 22.3736 11.0548 21.4736C10.3217 20.5735 9.92241 19.447 9.92473 18.2855V18.2221C10.5897 18.5981 11.3723 18.8291 12.1911 18.8608C11.5028 18.4015 10.9383 17.7791 10.5477 17.049C10.1571 16.3189 9.95243 15.5035 9.95188 14.6752C9.95188 13.7376 10.1962 12.8814 10.635 12.1385C11.8966 13.6938 13.471 14.9658 15.2558 15.8719C17.0406 16.7779 18.9958 17.2978 20.9943 17.3977C20.2841 13.9776 22.8355 11.2099 25.9026 11.2099C27.3502 11.2099 28.653 11.8169 29.5713 12.7953C30.7068 12.5824 31.7925 12.1566 32.7606 11.5859C32.3851 12.75 31.598 13.733 30.553 14.3536C31.5663 14.2449 32.5434 13.964 33.4482 13.5699C32.7651 14.5756 31.9101 15.468 30.9285 16.1791Z" fill="#C9A445"/>
</svg>
